<?xml version="1.0" encoding="UTF-8" standalone="no"?>
<!DOCTYPE svg PUBLIC "-//W3C//DTD SVG 1.1//EN"
 "http://www.w3.org/Graphics/SVG/1.1/DTD/svg11.dtd">
<!-- Generated by graphviz version 2.38.0 (20140413.2041)
 -->
<!-- Title: G Pages: 1 -->
<svg width="558pt" height="79pt"
 viewBox="0.00 0.00 558.00 79.38" xmlns="http://www.w3.org/2000/svg" xmlns:xlink="http://www.w3.org/1999/xlink">
<g id="graph0" class="graph" transform="scale(0.228846 0.228846) rotate(0) translate(4 342.87)">
<title>G</title>
<polygon fill="white" stroke="none" points="-4,4 -4,-342.87 2434.32,-342.87 2434.32,4 -4,4"/>
<text text-anchor="middle" x="1215.16" y="-7.8" font-family="Times,serif" font-size="14.00">Application porting, testing, integration and deployment workflow</text>
<!-- BuildScript -->
<g id="node1" class="node"><title>BuildScript</title>
<g id="a_node1"><a xlink:href="docs/Build.md" xlink:title="Create \n Build Script">
<ellipse fill="none" stroke="green" cx="337.044" cy="-218.87" rx="60.623" ry="26.7407"/>
<text text-anchor="middle" x="337.044" y="-222.67" font-family="Times,serif" font-size="14.00">Create </text>
<text text-anchor="middle" x="337.044" y="-207.67" font-family="Times,serif" font-size="14.00"> Build Script</text>
</a>
</g>
</g>
<!-- PullRequest -->
<g id="node5" class="node"><title>PullRequest</title>
<g id="a_node5"><a xlink:href="docs/PullRequest.md" xlink:title="Pull Request">
<ellipse fill="none" stroke="green" cx="490.75" cy="-187.87" rx="55.7903" ry="18"/>
<text text-anchor="middle" x="490.75" y="-184.17" font-family="Times,serif" font-size="14.00">Pull Request</text>
</a>
</g>
</g>
<!-- BuildScript&#45;&gt;PullRequest -->
<g id="edge4" class="edge"><title>BuildScript&#45;&gt;PullRequest</title>
<path fill="none" stroke="black" d="M392.813,-207.678C405.934,-204.997 419.969,-202.129 433.17,-199.432"/>
<polygon fill="black" stroke="black" points="433.976,-202.839 443.073,-197.408 432.575,-195.981 433.976,-202.839"/>
</g>
<!-- TestScript -->
<g id="node2" class="node"><title>TestScript</title>
<g id="a_node2"><a xlink:href="docs/Tests.md" xlink:title="Create\n Test Script">
<ellipse fill="none" stroke="green" cx="337.044" cy="-146.87" rx="56.6372" ry="26.7407"/>
<text text-anchor="middle" x="337.044" y="-150.67" font-family="Times,serif" font-size="14.00">Create</text>
<text text-anchor="middle" x="337.044" y="-135.67" font-family="Times,serif" font-size="14.00"> Test Script</text>
</a>
</g>
</g>
<!-- TestScript&#45;&gt;PullRequest -->
<g id="edge5" class="edge"><title>TestScript&#45;&gt;PullRequest</title>
<path fill="none" stroke="black" d="M386.462,-159.955C402.691,-164.342 420.856,-169.251 437.374,-173.715"/>
<polygon fill="black" stroke="black" points="436.847,-177.198 447.414,-176.428 438.674,-170.441 436.847,-177.198"/>
</g>
<!-- ForkRepo -->
<g id="node3" class="node"><title>ForkRepo</title>
<ellipse fill="none" stroke="green" cx="53.033" cy="-170.87" rx="53.066" ry="26.7407"/>
<text text-anchor="middle" x="53.033" y="-174.67" font-family="Times,serif" font-size="14.00">Fork the</text>
<text text-anchor="middle" x="53.033" y="-159.67" font-family="Times,serif" font-size="14.00"> repository</text>
</g>
<!-- AddScripts -->
<g id="node4" class="node"><title>AddScripts</title>
<g id="a_node4"><a xlink:href="docs/AddYourproject.md" xlink:title="Add your\n project">
<ellipse fill="none" stroke="green" cx="191.149" cy="-170.87" rx="48.1667" ry="26.7407"/>
<text text-anchor="middle" x="191.149" y="-174.67" font-family="Times,serif" font-size="14.00">Add your</text>
<text text-anchor="middle" x="191.149" y="-159.67" font-family="Times,serif" font-size="14.00"> project</text>
</a>
</g>
</g>
<!-- ForkRepo&#45;&gt;AddScripts -->
<g id="edge1" class="edge"><title>ForkRepo&#45;&gt;AddScripts</title>
<path fill="none" stroke="black" d="M106.27,-170.87C114.892,-170.87 123.872,-170.87 132.615,-170.87"/>
<polygon fill="black" stroke="black" points="132.734,-174.37 142.733,-170.87 132.733,-167.37 132.734,-174.37"/>
</g>
<!-- AddScripts&#45;&gt;BuildScript -->
<g id="edge2" class="edge"><title>AddScripts&#45;&gt;BuildScript</title>
<path fill="none" stroke="black" d="M232.999,-184.497C247.039,-189.18 263.037,-194.517 278.17,-199.565"/>
<polygon fill="black" stroke="black" points="277.366,-202.986 287.96,-202.83 279.582,-196.346 277.366,-202.986"/>
</g>
<!-- AddScripts&#45;&gt;TestScript -->
<g id="edge3" class="edge"><title>AddScripts&#45;&gt;TestScript</title>
<path fill="none" stroke="black" d="M237.678,-163.276C249.064,-161.377 261.475,-159.307 273.526,-157.297"/>
<polygon fill="black" stroke="black" points="274.247,-160.726 283.535,-155.628 273.095,-153.821 274.247,-160.726"/>
</g>
<!-- CreateJenkinsJob -->
<g id="node6" class="node"><title>CreateJenkinsJob</title>
<g id="a_node6"><a xlink:href="docs/JenkinsJob.md" xlink:title="Create Jenkins\n &#160;Job">
<ellipse fill="none" stroke="black" cx="651.527" cy="-187.87" rx="67.7647" ry="26.7407"/>
<text text-anchor="middle" x="651.527" y="-191.67" font-family="Times,serif" font-size="14.00">Create Jenkins</text>
<text text-anchor="middle" x="651.527" y="-176.67" font-family="Times,serif" font-size="14.00"> &#160;Job</text>
</a>
</g>
</g>
<!-- PullRequest&#45;&gt;CreateJenkinsJob -->
<g id="edge6" class="edge"><title>PullRequest&#45;&gt;CreateJenkinsJob</title>
<path fill="none" stroke="black" d="M546.837,-187.87C555.427,-187.87 564.437,-187.87 573.409,-187.87"/>
<polygon fill="black" stroke="black" points="573.497,-191.37 583.497,-187.87 573.497,-184.37 573.497,-191.37"/>
</g>
<!-- Build -->
<g id="node7" class="node"><title>Build</title>
<g id="a_node7"><a xlink:href="docs/Build.md" xlink:title="Build">
<ellipse fill="none" stroke="blue" cx="847.957" cy="-203.87" rx="30.5947" ry="18"/>
<text text-anchor="middle" x="847.957" y="-200.17" font-family="Times,serif" font-size="14.00">Build</text>
</a>
</g>
</g>
<!-- PullRequest&#45;&gt;Build -->
<g id="edge7" class="edge"><title>PullRequest&#45;&gt;Build</title>
<path fill="none" stroke="blue" d="M521.947,-203.004C539.479,-210.94 562.262,-219.831 583.645,-223.87 663.089,-238.876 758.032,-223.717 809.421,-212.831"/>
<polygon fill="blue" stroke="blue" points="810.379,-216.205 819.403,-210.654 808.887,-209.366 810.379,-216.205"/>
<text text-anchor="middle" x="651.527" y="-234.67" font-family="Times,serif" font-size="14.00">if first time</text>
</g>
<!-- InvokeTest -->
<g id="node10" class="node"><title>InvokeTest</title>
<g id="a_node10"><a xlink:href="docs/InvokeTest.md" xlink:title="Invoke Test">
<ellipse fill="none" stroke="blue" cx="1028.15" cy="-132.87" rx="52.7911" ry="18"/>
<text text-anchor="middle" x="1028.15" y="-129.17" font-family="Times,serif" font-size="14.00">Invoke Test</text>
</a>
</g>
</g>
<!-- PullRequest&#45;&gt;InvokeTest -->
<g id="edge8" class="edge"><title>PullRequest&#45;&gt;InvokeTest</title>
<path fill="none" stroke="blue" d="M522.432,-172.899C539.93,-165.121 562.521,-156.33 583.645,-151.87 717.877,-123.527 879.877,-125.414 966.122,-129.195"/>
<polygon fill="blue" stroke="blue" points="966.107,-132.697 976.258,-129.663 966.43,-125.705 966.107,-132.697"/>
<text text-anchor="middle" x="768.409" y="-150.67" font-family="Times,serif" font-size="14.00">if build </text>
<text text-anchor="middle" x="768.409" y="-135.67" font-family="Times,serif" font-size="14.00"> has passed</text>
</g>
<!-- CreateJenkinsJob&#45;&gt;Build -->
<g id="edge9" class="edge"><title>CreateJenkinsJob&#45;&gt;Build</title>
<path fill="none" stroke="blue" d="M718.081,-193.265C747.731,-195.705 781.791,-198.507 807.448,-200.619"/>
<polygon fill="blue" stroke="blue" points="807.287,-204.117 817.54,-201.449 807.861,-197.141 807.287,-204.117"/>
</g>
<!-- FailBuild -->
<g id="node8" class="node"><title>FailBuild</title>
<g id="a_node8"><a xlink:href="docs/FailBuild.md" xlink:title="Fail Build">
<ellipse fill="none" stroke="blue" cx="1028.15" cy="-237.87" rx="46.2923" ry="18"/>
<text text-anchor="middle" x="1028.15" y="-234.17" font-family="Times,serif" font-size="14.00">Fail Build</text>
</a>
</g>
</g>
<!-- Build&#45;&gt;FailBuild -->
<g id="edge11" class="edge"><title>Build&#45;&gt;FailBuild</title>
<path fill="none" stroke="blue" d="M877.192,-209.257C903.758,-214.326 944.151,-222.034 976.324,-228.172"/>
<polygon fill="blue" stroke="blue" points="975.975,-231.669 986.453,-230.105 977.287,-224.793 975.975,-231.669"/>
<text text-anchor="middle" x="927.004" y="-228.67" font-family="Times,serif" font-size="14.00">Build Fails</text>
</g>
<!-- Build&#45;&gt;InvokeTest -->
<g id="edge10" class="edge"><title>Build&#45;&gt;InvokeTest</title>
<path fill="none" stroke="gold" d="M873.734,-193.998C902.142,-182.678 949.232,-163.916 983.761,-150.158"/>
<polygon fill="gold" stroke="gold" points="985.147,-153.373 993.141,-146.421 982.556,-146.871 985.147,-153.373"/>
<text text-anchor="middle" x="927.004" y="-188.67" font-family="Times,serif" font-size="14.00">Promote</text>
</g>
<!-- UserContactBuild -->
<g id="node9" class="node"><title>UserContactBuild</title>
<g id="a_node9"><a xlink:href="docs/UserBuildFollowup.md" xlink:title="Open Issue\n on Github">
<ellipse fill="none" stroke="blue" cx="1235.79" cy="-244.87" rx="54.3945" ry="26.7407"/>
<text text-anchor="middle" x="1235.79" y="-248.67" font-family="Times,serif" font-size="14.00">Open Issue</text>
<text text-anchor="middle" x="1235.79" y="-233.67" font-family="Times,serif" font-size="14.00"> on Github</text>
</a>
</g>
</g>
<!-- FailBuild&#45;&gt;UserContactBuild -->
<g id="edge12" class="edge"><title>FailBuild&#45;&gt;UserContactBuild</title>
<path fill="none" stroke="black" d="M1074.28,-239.406C1102.64,-240.372 1139.66,-241.632 1171,-242.699"/>
<polygon fill="black" stroke="black" points="1171.27,-246.21 1181.39,-243.052 1171.51,-239.214 1171.27,-246.21"/>
</g>
<!-- UserContactBuild&#45;&gt;PullRequest -->
<g id="edge13" class="edge"><title>UserContactBuild&#45;&gt;PullRequest</title>
<path fill="none" stroke="black" d="M1192.17,-261.186C1151.06,-275.44 1086.77,-293.87 1029.15,-293.87 650.527,-293.87 650.527,-293.87 650.527,-293.87 592.72,-293.87 539.981,-244.667 512.237,-213.306"/>
<polygon fill="black" stroke="black" points="514.587,-210.672 505.412,-205.374 509.281,-215.237 514.587,-210.672"/>
<text text-anchor="middle" x="847.957" y="-327.67" font-family="Times,serif" font-size="14.00">Resolve</text>
<text text-anchor="middle" x="847.957" y="-312.67" font-family="Times,serif" font-size="14.00"> build</text>
<text text-anchor="middle" x="847.957" y="-297.67" font-family="Times,serif" font-size="14.00"> issue</text>
</g>
<!-- FailTest -->
<g id="node11" class="node"><title>FailTest</title>
<g id="a_node11"><a xlink:href="docs/FailTest.md" xlink:title="Fail Test">
<ellipse fill="none" stroke="black" cx="1235.79" cy="-118.87" rx="42.4939" ry="18"/>
<text text-anchor="middle" x="1235.79" y="-115.17" font-family="Times,serif" font-size="14.00">Fail Test</text>
</a>
</g>
</g>
<!-- InvokeTest&#45;&gt;FailTest -->
<g id="edge15" class="edge"><title>InvokeTest&#45;&gt;FailTest</title>
<path fill="none" stroke="blue" d="M1079.74,-129.205C1086.15,-128.75 1092.63,-128.296 1098.79,-127.87 1126.8,-125.938 1158.06,-123.863 1183.54,-122.194"/>
<polygon fill="blue" stroke="blue" points="1183.97,-125.673 1193.72,-121.528 1183.52,-118.688 1183.97,-125.673"/>
<text text-anchor="middle" x="1125.79" y="-131.67" font-family="Times,serif" font-size="14.00">Tests Fail</text>
</g>
<!-- InvokeArtifact -->
<g id="node13" class="node"><title>InvokeArtifact</title>
<g id="a_node13"><a xlink:href="docs/InvokeArtifact.md" xlink:title="Invoke Artifact">
<ellipse fill="none" stroke="black" cx="1235.79" cy="-172.87" rx="64.9885" ry="18"/>
<text text-anchor="middle" x="1235.79" y="-169.17" font-family="Times,serif" font-size="14.00">Invoke Artifact</text>
</a>
</g>
</g>
<!-- InvokeTest&#45;&gt;InvokeArtifact -->
<g id="edge14" class="edge"><title>InvokeTest&#45;&gt;InvokeArtifact</title>
<path fill="none" stroke="gold" d="M1074.28,-141.648C1102.98,-147.23 1140.54,-154.537 1172.11,-160.678"/>
<polygon fill="gold" stroke="gold" points="1171.65,-164.154 1182.13,-162.628 1172.99,-157.283 1171.65,-164.154"/>
<text text-anchor="middle" x="1125.79" y="-160.67" font-family="Times,serif" font-size="14.00">Promote</text>
</g>
<!-- UserContactTest -->
<g id="node12" class="node"><title>UserContactTest</title>
<g id="a_node12"><a xlink:href="docs/UserTestFollowup.md" xlink:title="Open Issue\n on Github">
<ellipse fill="none" stroke="blue" cx="1449.54" cy="-92.8701" rx="54.3945" ry="26.7407"/>
<text text-anchor="middle" x="1449.54" y="-96.6701" font-family="Times,serif" font-size="14.00">Open Issue</text>
<text text-anchor="middle" x="1449.54" y="-81.6701" font-family="Times,serif" font-size="14.00"> on Github</text>
</a>
</g>
</g>
<!-- FailTest&#45;&gt;UserContactTest -->
<g id="edge16" class="edge"><title>FailTest&#45;&gt;UserContactTest</title>
<path fill="none" stroke="blue" d="M1276.62,-113.98C1307.48,-110.191 1350.8,-104.872 1386.23,-100.521"/>
<polygon fill="blue" stroke="blue" points="1386.98,-103.956 1396.48,-99.2629 1386.13,-97.0077 1386.98,-103.956"/>
</g>
<!-- UserContactTest&#45;&gt;PullRequest -->
<g id="edge17" class="edge"><title>UserContactTest&#45;&gt;PullRequest</title>
<path fill="none" stroke="black" d="M1396.89,-85.2519C1354.1,-79.5999 1291.63,-72.8701 1236.79,-72.8701 650.527,-72.8701 650.527,-72.8701 650.527,-72.8701 590.283,-72.8701 537.443,-127.845 510.568,-161.775"/>
<polygon fill="black" stroke="black" points="507.637,-159.844 504.306,-169.901 513.182,-164.116 507.637,-159.844"/>
<text text-anchor="middle" x="927.004" y="-106.67" font-family="Times,serif" font-size="14.00">Resolve</text>
<text text-anchor="middle" x="927.004" y="-91.6701" font-family="Times,serif" font-size="14.00"> test</text>
<text text-anchor="middle" x="927.004" y="-76.6701" font-family="Times,serif" font-size="14.00"> issue</text>
</g>
<!-- StageToTesting -->
<g id="node14" class="node"><title>StageToTesting</title>
<ellipse fill="none" stroke="black" cx="1449.54" cy="-165.87" rx="65.5227" ry="26.7407"/>
<text text-anchor="middle" x="1449.54" y="-169.67" font-family="Times,serif" font-size="14.00">Stage to</text>
<text text-anchor="middle" x="1449.54" y="-154.67" font-family="Times,serif" font-size="14.00"> Testing Repo</text>
</g>
<!-- InvokeArtifact&#45;&gt;StageToTesting -->
<g id="edge18" class="edge"><title>InvokeArtifact&#45;&gt;StageToTesting</title>
<path fill="none" stroke="gold" d="M1300.61,-170.76C1323.63,-169.999 1349.81,-169.134 1373.68,-168.345"/>
<polygon fill="gold" stroke="gold" points="1373.88,-171.84 1383.76,-168.012 1373.65,-164.844 1373.88,-171.84"/>
<text text-anchor="middle" x="1342.28" y="-174.67" font-family="Times,serif" font-size="14.00">Promote</text>
</g>
<!-- FieldTests -->
<g id="node15" class="node"><title>FieldTests</title>
<ellipse fill="none" stroke="black" cx="1673.35" cy="-128.87" rx="50.0912" ry="18"/>
<text text-anchor="middle" x="1673.35" y="-125.17" font-family="Times,serif" font-size="14.00">Field Tests</text>
</g>
<!-- StageToTesting&#45;&gt;FieldTests -->
<g id="edge19" class="edge"><title>StageToTesting&#45;&gt;FieldTests</title>
<path fill="none" stroke="black" d="M1510.86,-155.809C1544.08,-150.267 1585.01,-143.439 1617.35,-138.044"/>
<polygon fill="black" stroke="black" points="1618.24,-141.444 1627.53,-136.347 1617.09,-134.54 1618.24,-141.444"/>
<text text-anchor="middle" x="1569.31" y="-170.67" font-family="Times,serif" font-size="14.00">Update Repo</text>
<text text-anchor="middle" x="1569.31" y="-155.67" font-family="Times,serif" font-size="14.00"> Version</text>
</g>
<!-- RepoLock -->
<g id="node16" class="node"><title>RepoLock</title>
<ellipse fill="none" stroke="black" cx="1913.69" cy="-128.87" rx="69.0935" ry="26.7407"/>
<text text-anchor="middle" x="1913.69" y="-132.67" font-family="Times,serif" font-size="14.00">Lock CVMFS </text>
<text text-anchor="middle" x="1913.69" y="-117.67" font-family="Times,serif" font-size="14.00"> repo</text>
</g>
<!-- FieldTests&#45;&gt;RepoLock -->
<g id="edge20" class="edge"><title>FieldTests&#45;&gt;RepoLock</title>
<path fill="none" stroke="gold" d="M1723.45,-128.87C1755.33,-128.87 1797.6,-128.87 1834.1,-128.87"/>
<polygon fill="gold" stroke="gold" points="1834.23,-132.37 1844.23,-128.87 1834.23,-125.37 1834.23,-132.37"/>
<text text-anchor="middle" x="1783.9" y="-132.67" font-family="Times,serif" font-size="14.00">Promote</text>
</g>
<!-- FollowUpSites -->
<g id="node17" class="node"><title>FollowUpSites</title>
<ellipse fill="none" stroke="black" cx="1913.69" cy="-49.8701" rx="54.3945" ry="26.7407"/>
<text text-anchor="middle" x="1913.69" y="-53.6701" font-family="Times,serif" font-size="14.00">Open Issue</text>
<text text-anchor="middle" x="1913.69" y="-38.6701" font-family="Times,serif" font-size="14.00"> on Github</text>
</g>
<!-- FieldTests&#45;&gt;FollowUpSites -->
<g id="edge21" class="edge"><title>FieldTests&#45;&gt;FollowUpSites</title>
<path fill="none" stroke="black" d="M1710.81,-116.786C1750.17,-103.739 1813.29,-82.8174 1858.47,-67.8412"/>
<polygon fill="black" stroke="black" points="1859.72,-71.1146 1868.11,-64.6461 1857.52,-64.4701 1859.72,-71.1146"/>
<text text-anchor="middle" x="1783.9" y="-109.67" font-family="Times,serif" font-size="14.00">Field Tests Fail</text>
</g>
<!-- DeployArtifact -->
<g id="node20" class="node"><title>DeployArtifact</title>
<ellipse fill="none" stroke="black" cx="2083.68" cy="-128.87" rx="63.8893" ry="18"/>
<text text-anchor="middle" x="2083.68" y="-125.17" font-family="Times,serif" font-size="14.00">DeployArtifact</text>
</g>
<!-- RepoLock&#45;&gt;DeployArtifact -->
<g id="edge23" class="edge"><title>RepoLock&#45;&gt;DeployArtifact</title>
<path fill="none" stroke="black" d="M1983.02,-128.87C1991.77,-128.87 2000.75,-128.87 2009.57,-128.87"/>
<polygon fill="black" stroke="black" points="2009.83,-132.37 2019.83,-128.87 2009.83,-125.37 2009.83,-132.37"/>
</g>
<!-- FollowUpSites&#45;&gt;InvokeTest -->
<g id="edge22" class="edge"><title>FollowUpSites&#45;&gt;InvokeTest</title>
<path fill="none" stroke="black" d="M1860.21,-44.6659C1811.96,-40.3335 1738.41,-34.8701 1674.35,-34.8701 1234.79,-34.8701 1234.79,-34.8701 1234.79,-34.8701 1165.3,-34.8701 1094.32,-81.0383 1056.64,-109.998"/>
<polygon fill="black" stroke="black" points="1054.38,-107.32 1048.67,-116.246 1058.7,-112.827 1054.38,-107.32"/>
</g>
<!-- RepoUpdate -->
<g id="node18" class="node"><title>RepoUpdate</title>
<ellipse fill="none" stroke="black" cx="2246.6" cy="-128.87" rx="62.4516" ry="26.7407"/>
<text text-anchor="middle" x="2246.6" y="-132.67" font-family="Times,serif" font-size="14.00">Update Repo</text>
<text text-anchor="middle" x="2246.6" y="-117.67" font-family="Times,serif" font-size="14.00"> Version</text>
</g>
<!-- SiteTag -->
<g id="node19" class="node"><title>SiteTag</title>
<ellipse fill="none" stroke="black" cx="2388.07" cy="-128.87" rx="42.4939" ry="18"/>
<text text-anchor="middle" x="2388.07" y="-125.17" font-family="Times,serif" font-size="14.00">Tag sites</text>
</g>
<!-- RepoUpdate&#45;&gt;SiteTag -->
<g id="edge25" class="edge"><title>RepoUpdate&#45;&gt;SiteTag</title>
<path fill="none" stroke="black" d="M2309.18,-128.87C2317.9,-128.87 2326.79,-128.87 2335.29,-128.87"/>
<polygon fill="black" stroke="black" points="2335.44,-132.37 2345.44,-128.87 2335.44,-125.37 2335.44,-132.37"/>
</g>
<!-- DeployArtifact&#45;&gt;RepoUpdate -->
<g id="edge24" class="edge"><title>DeployArtifact&#45;&gt;RepoUpdate</title>
<path fill="none" stroke="black" d="M2147.82,-128.87C2156.43,-128.87 2165.31,-128.87 2174.06,-128.87"/>
<polygon fill="black" stroke="black" points="2174.23,-132.37 2184.23,-128.87 2174.23,-125.37 2174.23,-132.37"/>
</g>
</g>
</svg>
